<svg xmlns="http://www.w3.org/2000/svg" width="16" height="16" viewBox="0 0 16 16"><defs><style>.a{fill:#389fd6;}.a,.b{fill-rule:evenodd;}.b{fill:#6e6e6e;}</style></defs><path class="a" d="M15,14.9a3.49,3.49,0,0,1-6-2l1.08.1a2.46,2.46,0,0,0,4.2,1.14l-1.22-1.22H16v2.92ZM10,10.1A3.49,3.49,0,0,1,16,12l-1.09-.1a2.45,2.45,0,0,0-4.18-1.07l1.22,1.21H9V9.14Z"/><path class="b" d="M11,7.06V2.62c0-.19-.32-.35-.72-.35s-.71.16-.71.35V6.15L9,5.81,8.61,6V1.38c0-.19-.32-.35-.71-.35s-.72.16-.72.35V6.51l-.76.3V.35C6.42.16,6.1,0,5.7,0S5,.16,5,.35v7L1.93,8.57h0v3.77L7.17,16l1.73-.79A4.53,4.53,0,0,1,8,13.05l0-1.22V9.54c0-.5,0-1.08.5-1.33s1.18.19,1.52.53A4.49,4.49,0,0,1,12.48,8Z"/></svg>